# xmcd CD database file
#
# Track frame offsets:
#	150
#	17320
#	42332
#	65333
#	86916
#	104862
#	121318
#	136370
#	156403
#	172712
#	193663
#	216188
#
# Disc length: 3173 seconds
#
# Revision: 0
# Processed by: cddbd v1.5.2PL0 Copyright (c) Steve Scherf et al.
# Submitted via: CDex 1.70beta2
#
DISCID=a60c630c
DTITLE=Richard Miller - What a Wonderful World in Paris
DYEAR=1900
DGENRE=Jazz
TTITLE0=Did I Do
TTITLE1=Rocking'Chair
TTITLE2=Blue River
TTITLE3=Blacksticks
TTITLE4=Look For The Silver Lining
TTITLE5=Lazy River
TTITLE6=Susie ( Of The Islands)
TTITLE7=When It's Sleepy Time Down South
TTITLE8=I'll See You In My Dreams
TTITLE9=Japanese Sandman
TTITLE10=Spanish Shawl
TTITLE11=What a Wonderful World
EXTD=
EXTT0=
EXTT1=
EXTT2=
EXTT3=
EXTT4=
EXTT5=
EXTT6=
EXTT7=
EXTT8=
EXTT9=
EXTT10=
EXTT11=
PLAYORDER=
